<svg class="svg-icon" style="width: 1em; height: 1em;vertical-align: middle;fill: currentColor;overflow: hidden;" viewBox="0 0 1024 1024" version="1.1" xmlns="http://www.w3.org/2000/svg"><path d="M436.33 438.26c148.79 0 269.41-39.8 269.41-88.9V198.63c0 49.1-120.62 88.9-269.41 88.9s-269.41-39.8-269.41-88.9v150.73c0 49.1 120.62 88.9 269.41 88.9z" fill="#2633D2" /><path d="M705.74 493V361.53c0 49.1-120.62 88.89-269.41 88.89s-269.41-39.79-269.41-88.89v150.73c0 49.1 120.62 88.89 269.41 88.89 45.39 0 88.14-3.7 125.66-10.24A211.79 211.79 0 0 1 705.74 493z" fill="#2633D2" /><path d="M554.31 604.53a750.28 750.28 0 0 1-118 9c-148.79 0-269.41-39.79-269.41-88.89v150.68c0 49.1 120.62 88.89 269.41 88.89a767.79 767.79 0 0 0 102.05-6.6 212.23 212.23 0 0 1 15.93-153.08z" fill="#2633D2" /><path d="M541.55 768.09a763.86 763.86 0 0 1-105.22 7c-148.79 0-269.41-39.8-269.41-88.89V837c0 49.1 120.62 88.89 269.41 88.89 86.53 0 163.52-13.46 212.81-34.38a212.27 212.27 0 0 1-107.59-123.42z" fill="#2633D2" /><path d="M166.92 187.04a269.41 88.89 0 1 0 538.82 0 269.41 88.89 0 1 0-538.82 0Z" fill="#2633D2" /><path d="M823.07 694.68l-104.5-46.63a37.85 37.85 0 0 1-23.79 14.51l-5.21 93.58a39 39 0 0 1 17.64 10.45l116.06-55.09a39.44 39.44 0 0 1-0.2-16.82z" fill="#2633D2" /><path d="M742.51 511.07a190.21 190.21 0 0 0-162.39 91c-2.46 4-4.78 8.12-6.91 12.25a188.26 188.26 0 0 0-21.1 87.19 191 191 0 0 0 6.78 50.49c0.87 3.17 1.83 6.34 2.85 9.41a191.74 191.74 0 0 0 96.79 111 188.47 188.47 0 0 0 84 19.48c105 0 190.4-85.41 190.4-190.4S847.5 511.07 742.51 511.07z m119.28 231.1a39.45 39.45 0 0 1-31.21-15.29l-114.41 54.31a39.06 39.06 0 1 1-43.6-25.88l5.21-93.69a37.91 37.91 0 1 1 47.73-29.12L830 679.14a39.53 39.53 0 1 1 31.78 63z" fill="#2633D2" /></svg>